<svg width="1600" height="980" viewBox="0 0 1600 980" fill="none" xmlns="http://www.w3.org/2000/svg">
  <rect width="1600" height="980" rx="28" fill="#F6F8FE"/>
  <rect width="298" height="980" fill="#2550D7"/>
  <rect x="338" y="126" width="1218" height="122" rx="22" fill="white" stroke="#DBE4FF"/>
  <rect x="338" y="276" width="274" height="112" rx="22" fill="white" stroke="#DBE4FF"/>
  <rect x="636" y="276" width="274" height="112" rx="22" fill="white" stroke="#DBE4FF"/>
  <rect x="934" y="276" width="274" height="112" rx="22" fill="white" stroke="#DBE4FF"/>
  <rect x="1232" y="276" width="324" height="112" rx="22" fill="white" stroke="#DBE4FF"/>
  <rect x="338" y="418" width="610" height="316" rx="24" fill="white" stroke="#DBE4FF"/>
  <rect x="976" y="418" width="580" height="316" rx="24" fill="white" stroke="#DBE4FF"/>
  <rect x="338" y="760" width="842" height="168" rx="24" fill="white" stroke="#DBE4FF"/>
  <rect x="1208" y="760" width="348" height="168" rx="24" fill="white" stroke="#DBE4FF"/>
  <rect x="362" y="470" width="562" height="112" rx="20" fill="#F4F7FF"/>
  <rect x="1000" y="470" width="532" height="112" rx="20" fill="#F4F7FF"/>
  <text x="338" y="952" fill="#7A8EBE" font-family="Arial, sans-serif" font-size="28" font-weight="700">Parent Dashboard Preview</text>
</svg>
