<svg width="1600" height="980" viewBox="0 0 1600 980" fill="none" xmlns="http://www.w3.org/2000/svg">
  <rect width="1600" height="980" rx="28" fill="#F7F9FF"/>
  <rect width="298" height="980" fill="#2550D7"/>
  <rect x="338" y="118" width="1218" height="108" rx="22" fill="white" stroke="#DBE4FF"/>
  <rect x="338" y="250" width="1036" height="52" rx="16" fill="white" stroke="#DBE4FF"/>
  <rect x="1368" y="250" width="188" height="52" rx="16" fill="white" stroke="#DBE4FF"/>
  <rect x="338" y="330" width="1218" height="578" rx="24" fill="white" stroke="#DBE4FF"/>
  <g fill="#EEF3FF" stroke="#E1E9FD">
    <rect x="372" y="414" width="1148" height="82" rx="18"/>
    <rect x="372" y="514" width="1148" height="82" rx="18"/>
    <rect x="372" y="614" width="1148" height="82" rx="18"/>
    <rect x="372" y="714" width="1148" height="82" rx="18"/>
  </g>
  <g fill="#E8F1FF">
    <circle cx="430" cy="455" r="24"/>
    <circle cx="430" cy="555" r="24"/>
    <circle cx="430" cy="655" r="24"/>
    <circle cx="430" cy="755" r="24"/>
  </g>
  <g fill="#162447">
    <rect x="470" y="444" width="148" height="18" rx="9"/>
    <rect x="470" y="544" width="168" height="18" rx="9"/>
    <rect x="470" y="644" width="156" height="18" rx="9"/>
    <rect x="470" y="744" width="132" height="18" rx="9"/>
  </g>
  <g fill="#86EFAC">
    <rect x="1278" y="440" width="82" height="28" rx="14"/>
    <rect x="1278" y="540" width="82" height="28" rx="14"/>
    <rect x="1278" y="640" width="82" height="28" rx="14"/>
    <rect x="1278" y="740" width="82" height="28" rx="14"/>
  </g>
  <text x="338" y="952" fill="#7A8EBE" font-family="Arial, sans-serif" font-size="28" font-weight="700">Student Directory Preview</text>
</svg>
